# xmcd
#
# Track frame offsets:
#	150
#	14280
#	24833
#	37380
#	48947
#	58605
#	71165
#	87283
#	96860
#	109245
#	121960
#	132443
#	146053
#	159170
#
# Disc length: 2351 seconds
#
# Revision: 7
# Processed by: cddbd v1.5.2PL0 Copyright (c) Steve Scherf et al.
# Submitted via: EasyCDDAExtractor 16.0.6.1
#
DISCID=c0092d0e
DTITLE=Various Artist - C-058 Desperado CD 2
DYEAR=1900
DGENRE=Country
TTITLE0=Billie Jo Spears - Which Way You Goin' Billy
TTITLE1=Jimmie Rodgers - Kisses Sweeter Than Wine
TTITLE2=Faron Young - It's Four In The Morning
TTITLE3=Skeeter Davis - Crying Time
TTITLE4=Ned Miller - From A Jack To a King
TTITLE5=Johnny Cash - Folsom Prison Blues
TTITLE6=Lynn Anderson - The Devil Went Down To Georgia
TTITLE7=Merle Travis - 16 Tons
TTITLE8=Kenny Rogers - Ruben James
TTITLE9=Willy Nelson - Any Old Arms Won't Do
TTITLE10=Waylon Jennings - White Lightnin'
TTITLE11=Charlie Rich - Since I Fell For You
TTITLE12=Freddy Fender - Silver Wings
TTITLE13=Glen Campbell - Southern Nights
EXTD=
EXTT0=
EXTT1=
EXTT2=
EXTT3=
EXTT4=
EXTT5=
EXTT6=
EXTT7=
EXTT8=
EXTT9=
EXTT10=
EXTT11=
EXTT12=
EXTT13=
PLAYORDER=
